<?xml version="1.0" encoding="utf-8"?>
<!-- Generator: Adobe Illustrator 22.1.0, SVG Export Plug-In . SVG Version: 6.00 Build 0)  -->
<svg version="1.1" id="Layer_1" xmlns="http://www.w3.org/2000/svg" xmlns:xlink="http://www.w3.org/1999/xlink" x="0px" y="0px"
	 viewBox="0 0 800 600" style="enable-background:new 0 0 800 600;" xml:space="preserve">
<style type="text/css">
	.st0{font-family:'HelveticaNeue';}
	.st1{font-size:20px;}
</style>
<path d="M345.5,94C328.7,94,315,80.3,315,63.5S328.7,33,345.5,33S376,46.7,376,63.5S362.3,94,345.5,94z M345.5,34
	C329.2,34,316,47.2,316,63.5S329.2,93,345.5,93S375,79.8,375,63.5S361.8,34,345.5,34z"/>
<text transform="matrix(1 0 0 1 316.5 69.5)" class="st0 st1">Car On</text>
<path d="M71.5,225C54.7,225,41,211.3,41,194.5S54.7,164,71.5,164s30.5,13.7,30.5,30.5S88.3,225,71.5,225z M71.5,165
	C55.2,165,42,178.2,42,194.5S55.2,224,71.5,224s29.5-13.2,29.5-29.5S87.8,165,71.5,165z"/>
<text transform="matrix(1 0 0 1 11.5 200.5)" class="st0 st1">Handle Middle</text>
<path d="M556.5,211c-16.8,0-30.5-13.7-30.5-30.5s13.7-30.5,30.5-30.5s30.5,13.7,30.5,30.5S573.3,211,556.5,211z M556.5,151
	c-16.3,0-29.5,13.2-29.5,29.5s13.2,29.5,29.5,29.5s29.5-13.2,29.5-29.5S572.8,151,556.5,151z"/>
<text transform="matrix(1 0 0 1 497.5 186.5)" class="st0 st1">Haz Unpushed</text>
<path d="M523.5,534c-16.8,0-30.5-13.7-30.5-30.5s13.7-30.5,30.5-30.5s30.5,13.7,30.5,30.5S540.3,534,523.5,534z M523.5,474
	c-16.3,0-29.5,13.2-29.5,29.5s13.2,29.5,29.5,29.5s29.5-13.2,29.5-29.5S539.8,474,523.5,474z"/>
<text transform="matrix(1 0 0 1 462.5 509.5)" class="st0 st1">Right Light On</text>
<path d="M267.5,534c-16.8,0-30.5-13.7-30.5-30.5s13.7-30.5,30.5-30.5s30.5,13.7,30.5,30.5S284.3,534,267.5,534z M267.5,474
	c-16.3,0-29.5,13.2-29.5,29.5s13.2,29.5,29.5,29.5s29.5-13.2,29.5-29.5S283.8,474,267.5,474z"/>
<text transform="matrix(1 0 0 1 211.5 509.5)" class="st0 st1">Left Light On</text>
<path d="M267.5,286c-16.8,0-30.5-13.7-30.5-30.5s13.7-30.5,30.5-30.5s30.5,13.7,30.5,30.5S284.3,286,267.5,286z M267.5,226
	c-16.3,0-29.5,13.2-29.5,29.5s13.2,29.5,29.5,29.5s29.5-13.2,29.5-29.5S283.8,226,267.5,226z"/>
<text transform="matrix(1 0 0 1 223.5 261.5)" class="st0 st1">Handle Up</text>
<path d="M417.5,211c-16.8,0-30.5-13.7-30.5-30.5s13.7-30.5,30.5-30.5s30.5,13.7,30.5,30.5S434.3,211,417.5,211z M417.5,151
	c-16.3,0-29.5,13.2-29.5,29.5s13.2,29.5,29.5,29.5s29.5-13.2,29.5-29.5S433.8,151,417.5,151z"/>
<text transform="matrix(1 0 0 1 361.5 186.5)" class="st0 st1">Handle Down</text>
<path d="M729.5,211c-16.8,0-30.5-13.7-30.5-30.5s13.7-30.5,30.5-30.5s30.5,13.7,30.5,30.5S746.3,211,729.5,211z M729.5,151
	c-16.3,0-29.5,13.2-29.5,29.5s13.2,29.5,29.5,29.5s29.5-13.2,29.5-29.5S745.8,151,729.5,151z"/>
<text transform="matrix(1 0 0 1 682.5 186.5)" class="st0 st1">Haz Pushed</text>
<g>
	<path d="M318.4,76.4L98.6,181.6L318.4,76.4z"/>
	<rect x="86.6" y="128.5" transform="matrix(0.9021 -0.4315 0.4315 0.9021 -35.2548 102.6018)" width="243.7" height="1"/>
</g>
<polygon points="98.6,181.6 107.9,182.6 103.6,173.6 "/>
<text transform="matrix(1 0 0 1 191.5 119.5)" class="st0 st1">ε</text>
<g>
	<path d="M371.7,78L530.3,166L371.7,78z"/>
	<rect x="450.5" y="31.4" transform="matrix(0.4849 -0.8745 0.8745 0.4849 125.5976 457.2585)" width="1" height="181.3"/>
</g>
<polygon points="530.3,166 525.7,157.7 520.8,166.4 "/>
<text transform="matrix(1 0 0 1 433.5 143.5)" class="st0 st1">ε</text>
<g>
	<path d="M334.2,91.3l-55.4,136.4L334.2,91.3z"/>
	<rect x="232.9" y="159" transform="matrix(0.3759 -0.9266 0.9266 0.3759 43.4767 383.5563)" width="147.2" height="1"/>
</g>
<polygon points="278.8,227.7 286.4,222.2 277.2,218.4 "/>
<text transform="matrix(1 0 0 1 286.5 156.5)" class="st0 st1">ε</text>
<g>
	<path d="M361.2,89.1l40.6,65.9L361.2,89.1z"/>
	<rect x="381" y="83.3" transform="matrix(0.8517 -0.5241 0.5241 0.8517 -7.3474 218.0415)" width="1" height="77.4"/>
</g>
<polygon points="401.8,154.9 401.8,145.5 393.3,150.8 "/>
<text transform="matrix(1 0 0 1 362.5 140.5)" class="st0 st1">ε</text>
<g>
	<path d="M267.5,285.5v188V285.5z"/>
	<rect x="267" y="285.5" width="1" height="188"/>
</g>
<polygon points="267.5,473.5 272.5,465.5 262.5,465.5 "/>
<text transform="matrix(1 0 0 1 250.5 385.5)" class="st0 st1">ε</text>
<g>
	<path d="M426.9,209l87.3,266L426.9,209z"/>
	<rect x="470" y="202" transform="matrix(0.9501 -0.3118 0.3118 0.9501 -83.1831 163.7607)" width="1" height="279.9"/>
</g>
<polygon points="514.1,475 516.4,465.8 506.9,469 "/>
<text transform="matrix(1 0 0 1 450.5 354.5)" class="st0 st1">ε</text>
<path d="M493.5,504c-88.4-3-173.7-30.9-246.7-80.8S116.8,303.9,82,222.6l0.9-0.4c34.8,81.1,91.7,150.3,164.5,200.1
	c72.8,49.8,157.9,77.7,246.1,80.7L493.5,504z"/>
<polygon points="493.5,503.5 485.7,498.2 485.3,508.2 "/>
<text transform="matrix(1 0 0 1 164.5 443.5)" class="st0 st1">Move UP</text>
<g>
	<path d="M374.2,72.2l326.6,99.5L374.2,72.2z"/>
	<rect x="537" y="-48.7" transform="matrix(0.2915 -0.9566 0.9566 0.2915 264.1389 600.6061)" width="1" height="341.4"/>
</g>
<polygon points="700.8,171.8 694.6,164.6 691.7,174.2 "/>
<text transform="matrix(1 0 0 1 522.5 143.5)" class="st0 st1">ε</text>
<g>
	<path d="M713.4,205.8L539.6,478.2L713.4,205.8z"/>
	<rect x="465" y="341.5" transform="matrix(0.537 -0.8436 0.8436 0.537 1.5636 686.8489)" width="323.1" height="1"/>
</g>
<polygon points="539.6,478.2 548.1,474.1 539.7,468.8 "/>
<text transform="matrix(1 0 0 1 608.5 334.5)" class="st0 st1">ε</text>
<g>
	<path d="M704.9,197.7L292.1,486.3L704.9,197.7z"/>
	<rect x="246.6" y="341.5" transform="matrix(0.8197 -0.5728 0.5728 0.8197 -106.0154 347.2104)" width="503.7" height="1"/>
</g>
<polygon points="292.1,486.3 301.5,485.8 295.8,477.6 "/>
<text transform="matrix(1 0 0 1 481.5 333.5)" class="st0 st1">ε</text>
<g>
	<path d="M586.5,180.5h113H586.5z"/>
	<rect x="586.5" y="180" width="113" height="1"/>
</g>
<polygon points="699.5,180.5 691.5,175.5 691.5,185.5 "/>
<text transform="matrix(1 0 0 1 623.5 201.5)" class="st0 st1">Push</text>
<g>
	<path d="M101.5,193.3l286-11.6L101.5,193.3z"/>
	<rect x="101.4" y="187" transform="matrix(0.9992 -4.004605e-02 4.004605e-02 0.9992 -7.3125 9.9417)" width="286.3" height="1"/>
</g>
<polygon points="387.5,181.7 379.3,177 379.7,187 "/>
<text transform="matrix(1 0 0 1 221.5 209.5)" class="st0 st1">Down</text>
<g>
	<path d="M100.1,203.4l138.7,43.2L100.1,203.4z"/>
	<rect x="169" y="152.4" transform="matrix(0.2972 -0.9548 0.9548 0.2972 -95.7054 319.9809)" width="1" height="145.3"/>
</g>
<polygon points="238.9,246.6 232.7,239.4 229.7,249 "/>
<text transform="matrix(1 0 0 1 142.5 246.5)" class="st0 st1">Up</text>
</svg>
